<svg id="Layer_1" enable-background="new 0 0 64 64" height="512" viewBox="0 0 64 64" width="512" xmlns="http://www.w3.org/2000/svg"><path d="m32 47.5c-2.481 0-4.5 2.019-4.5 4.5s2.019 4.5 4.5 4.5 4.5-2.019 4.5-4.5-2.019-4.5-4.5-4.5zm0 8c-1.93 0-3.5-1.57-3.5-3.5s1.57-3.5 3.5-3.5 3.5 1.57 3.5 3.5-1.57 3.5-3.5 3.5z"/><path d="m52 27.5c-2.481 0-4.5 2.019-4.5 4.5s2.019 4.5 4.5 4.5 4.5-2.019 4.5-4.5-2.019-4.5-4.5-4.5zm0 8c-1.93 0-3.5-1.57-3.5-3.5s1.57-3.5 3.5-3.5 3.5 1.57 3.5 3.5-1.57 3.5-3.5 3.5z"/><path d="m12 35.223c-2.481 0-4.5 2.019-4.5 4.5s2.019 4.5 4.5 4.5 4.5-2.019 4.5-4.5-2.019-4.5-4.5-4.5zm0 8c-1.93 0-3.5-1.57-3.5-3.5s1.57-3.5 3.5-3.5 3.5 1.57 3.5 3.5-1.57 3.5-3.5 3.5z"/><circle cx="10.639" cy="38.361" r=".722"/><circle cx="53.278" cy="33.278" r=".722"/><path d="m24 16.5c2.481 0 4.5-2.019 4.5-4.5s-2.019-4.5-4.5-4.5-4.5 2.019-4.5 4.5 2.019 4.5 4.5 4.5zm0-8c1.93 0 3.5 1.57 3.5 3.5s-1.57 3.5-3.5 3.5-3.5-1.57-3.5-3.5 1.57-3.5 3.5-3.5z"/><path d="m38.5 21c0-1.379-1.122-2.5-2.5-2.5s-2.5 1.121-2.5 2.5 1.122 2.5 2.5 2.5 2.5-1.121 2.5-2.5zm-4 0c0-.827.673-1.5 1.5-1.5s1.5.673 1.5 1.5-.673 1.5-1.5 1.5-1.5-.673-1.5-1.5z"/><path d="m24.753 30.099c-.001.003-.003.005-.003.008-.001.002 0 .005 0 .007-.158.603-.25 1.233-.25 1.886 0 .44.046.869.119 1.288.001.005.001.009.002.013.619 3.517 3.688 6.199 7.379 6.199s6.76-2.682 7.379-6.198c.001-.005.001-.009.002-.013.073-.42.119-.849.119-1.289 0-.653-.092-1.283-.25-1.887-.001-.002 0-.005 0-.007-.001-.003-.003-.005-.003-.008-.845-3.215-3.769-5.598-7.247-5.598s-6.402 2.383-7.247 5.599zm13.747 1.901c0 .27-.022.535-.054.797-1.919.438-4.133.676-6.446.676s-4.527-.238-6.446-.676c-.032-.262-.054-.527-.054-.797 0-.406.042-.803.114-1.189 1.958.428 4.147.662 6.386.662s4.428-.234 6.386-.662c.072.386.114.783.114 1.189zm-6.5 6.5c-2.936 0-5.421-1.958-6.225-4.637 1.887.393 4.011.61 6.225.61s4.338-.217 6.225-.61c-.804 2.679-3.289 4.637-6.225 4.637zm6.124-8.657c-3.76.808-8.489.808-12.249 0 .893-2.525 3.298-4.343 6.125-4.343s5.232 1.818 6.124 4.343z"/><path d="m51.234 37.523c-.266-.089-.545.063-.627.327-1.91 6.079-6.679 10.848-12.757 12.757-.263.082-.41.363-.327.626.067.214.264.351.477.351.049 0 .1-.007.15-.023 6.391-2.006 11.404-7.02 13.412-13.411.082-.263-.064-.545-.328-.627z"/><path d="m32 12.5c8.565 0 16.043 5.485 18.607 13.649.067.214.264.351.477.351.049 0 .1-.007.15-.023.263-.082.41-.363.327-.626-2.696-8.584-10.557-14.351-19.561-14.351-.276 0-.5.224-.5.5s.224.5.5.5z"/><path d="m12 32.5c.276 0 .5-.224.5-.5 0-5.703 2.487-11.105 6.825-14.819.21-.18.234-.495.055-.705-.18-.209-.495-.234-.705-.055-4.56 3.904-7.175 9.583-7.175 15.579 0 .276.224.5.5.5z"/><path d="m26.15 50.607c-3.481-1.094-6.583-3.145-8.969-5.933-.18-.21-.495-.233-.705-.055-.21.18-.234.495-.055.705 2.509 2.931 5.769 5.087 9.429 6.235.05.017.101.023.15.023.213 0 .41-.137.477-.351.083-.26-.064-.542-.327-.624z"/><path d="m21.367 22.142c2.736-2.951 6.612-4.642 10.633-4.642.276 0 .5-.224.5-.5s-.224-.5-.5-.5c-4.299 0-8.442 1.809-11.367 4.962-.188.202-.176.519.027.706.096.09.218.134.34.134.134 0 .268-.054.367-.16z"/><path d="m17.672 27.518c-.262-.068-.541.083-.615.35-.369 1.34-.557 2.731-.557 4.132 0 2.937.825 5.795 2.386 8.267.095.151.257.233.423.233.091 0 .184-.025.267-.077.233-.147.303-.456.156-.689-1.46-2.313-2.232-4.987-2.232-7.734 0-1.312.175-2.613.521-3.867.073-.267-.083-.541-.349-.615z"/><path d="m39 45.77c.079 0 .159-.019.233-.058 3.769-1.992 6.579-5.483 7.709-9.579.074-.266-.083-.541-.349-.615-.264-.068-.541.083-.615.35-1.058 3.831-3.687 7.097-7.212 8.96-.244.129-.338.432-.208.676.089.169.263.266.442.266z"/><path d="m46.943 27.867c-.63-2.284-1.803-4.428-3.39-6.201-.185-.206-.501-.223-.706-.038-.206.184-.223.5-.039.706 1.485 1.658 2.582 3.663 3.171 5.799.061.222.262.367.481.367.044 0 .089-.006.133-.018.267-.074.424-.349.35-.615z"/><path d="m42.5 32c0-3.092-1.354-6.014-3.716-8.016-.209-.177-.526-.153-.705.059-.179.211-.153.526.058.705 2.137 1.811 3.363 4.454 3.363 7.252 0 5.238-4.262 9.5-9.5 9.5s-9.5-4.262-9.5-9.5 4.262-9.5 9.5-9.5c.276 0 .5-.224.5-.5s-.224-.5-.5-.5c-5.79 0-10.5 4.71-10.5 10.5s4.71 10.5 10.5 10.5 10.5-4.71 10.5-10.5z"/><circle cx="33" cy="51" r="1"/><circle cx="41" cy="18" r="1"/><circle cx="19" cy="24" r="1"/><circle cx="25" cy="13" r="1"/><path d="m23 46.5c1.378 0 2.5-1.121 2.5-2.5s-1.122-2.5-2.5-2.5-2.5 1.121-2.5 2.5 1.122 2.5 2.5 2.5zm0-4c.827 0 1.5.673 1.5 1.5s-.673 1.5-1.5 1.5-1.5-.673-1.5-1.5.673-1.5 1.5-1.5z"/></svg>