<svg id="Layer_1" enable-background="new 0 0 64 64" height="512" viewBox="0 0 64 64" width="512" xmlns="http://www.w3.org/2000/svg"><path d="m51.699 35.51c-.266-.057-.534.12-.59.391-1.325 6.526-6.032 12.032-12.284 14.368-.259.097-.391.385-.294.644.075.201.267.325.469.325.059 0 .117-.01.175-.031 6.573-2.457 11.521-8.245 12.915-15.106.055-.272-.12-.536-.391-.591z"/><path d="m26.15 50.604c-8.165-2.565-13.65-10.041-13.65-18.604 0-3.087.7-6.039 2.081-8.774.125-.247.025-.548-.221-.672-.246-.123-.547-.024-.672.221-1.452 2.876-2.188 5.98-2.188 9.225 0 9.002 5.767 16.861 14.35 19.558.05.017.101.023.15.023.213 0 .41-.137.477-.351.083-.262-.064-.543-.327-.626z"/><path d="m18 18.217c.126 0 .253-.048.35-.143 3.667-3.595 8.514-5.574 13.65-5.574.276 0 .5-.224.5-.5s-.224-.5-.5-.5c-5.399 0-10.495 2.081-14.35 5.859-.197.193-.2.51-.007.707.098.101.228.151.357.151z"/><path d="m50.885 27.125c.059.226.262.375.484.375.041 0 .083-.005.125-.016.268-.069.428-.342.359-.609-1.153-4.472-3.836-8.471-7.554-11.262-.22-.167-.534-.121-.699.1-.166.221-.122.534.1.699 3.536 2.656 6.088 6.46 7.185 10.713z"/><path d="m47.5 32c0-4.922-2.26-9.441-6.2-12.4-.22-.167-.533-.121-.699.1s-.122.534.1.699c3.686 2.769 5.8 6.997 5.8 11.602 0 5.767-3.415 10.984-8.7 13.294-.253.11-.368.405-.258.658.082.188.266.3.458.3.067 0 .135-.014.2-.042 5.649-2.469 9.299-8.047 9.299-14.211z"/><path d="m17.5 32c0-7.995 6.505-14.5 14.5-14.5.276 0 .5-.224.5-.5s-.224-.5-.5-.5c-8.547 0-15.5 6.953-15.5 15.5 0 5.763 3.167 11.017 8.267 13.712.074.039.154.058.233.058.18 0 .353-.097.442-.267.129-.244.036-.547-.208-.676-4.771-2.52-7.734-7.436-7.734-12.827z"/><path d="m42.101 29.167c-.001-.006-.003-.011-.004-.016-.353-1.247-.93-2.397-1.686-3.41-.009-.011-.015-.023-.025-.033-1.918-2.549-4.958-4.208-8.386-4.208-3.495 0-6.588 1.723-8.498 4.357-.011.013-.02.026-.03.04-1.235 1.722-1.972 3.826-1.972 6.103 0 4.013 2.265 7.504 5.582 9.271.011.005.021.011.032.015 1.461.772 3.122 1.214 4.886 1.214 5.479 0 9.984-4.219 10.453-9.578 0-.003 0-.005 0-.008.027-.301.047-.605.047-.914 0-.983-.146-1.93-.399-2.833zm-10.101-6.667c2.725 0 5.179 1.16 6.913 3.004-1.51.01-2.541.263-3.534.511-.998.25-1.941.485-3.379.485-1.419 0-2.11-.23-2.842-.475-.775-.257-1.577-.525-3.158-.525-.314 0-.629.016-.943.038 1.735-1.864 4.202-3.038 6.943-3.038zm-9.5 9.5c0-1.988.616-3.834 1.664-5.361.609-.088 1.225-.139 1.836-.139 1.419 0 2.11.23 2.842.475.775.257 1.577.525 3.158.525 1.562 0 2.608-.262 3.621-.515.998-.25 1.94-.485 3.379-.485.263 0 .509.015.754.03.46.65.836 1.36 1.123 2.116-.626-.087-1.248-.146-1.877-.146-1.562 0-2.608.262-3.621.515-.998.25-1.941.485-3.379.485-.276 0-.5.224-.5.5s.224.5.5.5c1.562 0 2.608-.262 3.621-.515.998-.25 1.94-.485 3.379-.485.738 0 1.465.075 2.208.206.184.736.292 1.502.292 2.294 0 .069-.009.136-.01.205-1.402-.467-3.242-.705-5.49-.705-.276 0-.5.224-.5.5s.224.5.5.5c2.29 0 4.09.261 5.407.753-.127.959-.397 1.871-.789 2.718-1.273-.307-2.814-.471-4.618-.471-4.342 0-5.952 1.747-7.508 3.437-.393.426-.807.858-1.256 1.269-2.827-1.648-4.736-4.705-4.736-8.206zm9.5 9.5c-1.36 0-2.651-.292-3.821-.809.369-.358.719-.72 1.048-1.078 1.54-1.67 2.869-3.113 6.773-3.113 1.606 0 2.983.135 4.132.385-1.664 2.76-4.681 4.615-8.132 4.615z"/><path d="m32 47.5c-2.481 0-4.5 2.019-4.5 4.5s2.019 4.5 4.5 4.5 4.5-2.019 4.5-4.5-2.019-4.5-4.5-4.5zm0 8c-1.93 0-3.5-1.57-3.5-3.5s1.57-3.5 3.5-3.5 3.5 1.57 3.5 3.5-1.57 3.5-3.5 3.5z"/><path d="m39 16.5c2.481 0 4.5-2.019 4.5-4.5s-2.019-4.5-4.5-4.5-4.5 2.019-4.5 4.5 2.019 4.5 4.5 4.5zm0-8c1.93 0 3.5 1.57 3.5 3.5s-1.57 3.5-3.5 3.5-3.5-1.57-3.5-3.5 1.57-3.5 3.5-3.5z"/><path d="m28.5 33c0-1.379-1.122-2.5-2.5-2.5s-2.5 1.121-2.5 2.5 1.122 2.5 2.5 2.5 2.5-1.121 2.5-2.5zm-4 0c0-.827.673-1.5 1.5-1.5s1.5.673 1.5 1.5-.673 1.5-1.5 1.5-1.5-.673-1.5-1.5z"/><path d="m54.354 29.646c-.195-.195-.512-.195-.707 0l-1.647 1.647-1.646-1.646c-.195-.195-.512-.195-.707 0s-.195.512 0 .707l1.646 1.646-1.646 1.646c-.195.195-.195.512 0 .707.097.098.225.147.353.147s.256-.049.354-.146l1.646-1.647 1.646 1.646c.098.098.226.147.354.147s.256-.049.354-.146c.195-.195.195-.512 0-.707l-1.647-1.647 1.646-1.646c.196-.196.196-.512.001-.708z"/><path d="m14.646 21.354c.098.097.226.146.354.146s.256-.049.354-.146l.646-.647.646.646c.098.098.226.147.354.147s.256-.049.354-.146c.195-.195.195-.512 0-.707l-.647-.647.646-.646c.195-.195.195-.512 0-.707s-.512-.195-.707 0l-.646.646-.646-.646c-.195-.195-.512-.195-.707 0s-.195.512 0 .707l.646.646-.646.646c-.196.196-.196.512-.001.708z"/><circle cx="36" cy="19" r="1"/><circle cx="19" cy="13" r="1"/><path d="m56 9.5h-1.5v-1.5c0-.276-.224-.5-.5-.5s-.5.224-.5.5v1.5h-1.5c-.276 0-.5.224-.5.5s.224.5.5.5h1.5v1.5c0 .276.224.5.5.5s.5-.224.5-.5v-1.5h1.5c.276 0 .5-.224.5-.5s-.224-.5-.5-.5z"/><path d="m12 53.5h-1.5v-1.5c0-.276-.224-.5-.5-.5s-.5.224-.5.5v1.5h-1.5c-.276 0-.5.224-.5.5s.224.5.5.5h1.5v1.5c0 .276.224.5.5.5s.5-.224.5-.5v-1.5h1.5c.276 0 .5-.224.5-.5s-.224-.5-.5-.5z"/><circle cx="53" cy="52" r="1"/></svg>